<svg xmlns="http://www.w3.org/2000/svg" viewBox="0 0 100 100" width="100" height="100">
  <!-- Bitcoin B Symbol in primary blue (#148fff) -->
  <g fill="none" stroke="#148fff" stroke-width="6" stroke-linecap="round" stroke-linejoin="round">
    <!-- Left vertical line -->
    <line x1="22" y1="18" x2="22" y2="82"/>
    
    <!-- Top half of B -->
    <path d="M 22 18 L 22 35 Q 22 40 28 40 L 48 40 Q 62 40 62 29 Q 62 18 48 18 L 28 18 Q 22 18 22 23"/>
    
    <!-- Bottom half of B -->
    <path d="M 22 50 L 22 67 Q 22 72 28 72 L 52 72 Q 68 72 68 61 Q 68 50 52 50 L 28 50 Q 22 50 22 55"/>
    
    <!-- Two vertical lines through B (Bitcoin symbol characteristic) -->
    <line x1="40" y1="25" x2="40" y2="50" stroke-width="4.5"/>
    <line x1="56" y1="52" x2="56" y2="72" stroke-width="4.5"/>
  </g>
</svg>
